<svg xmlns="http://www.w3.org/2000/svg" viewBox="0 0 96 96">
  <rect width="96" height="96" rx="18" fill="#121b33"/>
  <path d="M19 44c3-20 17-31 32-31s28 12 31 31c-14 8-45 8-63 0z" fill="#c7a06b"/>
  <path d="M29 40c3-12 13-19 23-19 9 0 18 7 21 19-11 5-31 5-44 0z" fill="#f0d69a"/>
  <circle cx="36" cy="31" r="5" fill="#875b43"/>
  <circle cx="58" cy="26" r="4" fill="#875b43"/>
  <circle cx="68" cy="37" r="4" fill="#875b43"/>
  <path d="M38 46h23l5 33c-12 7-23 7-34 0z" fill="#7fb27d"/>
  <path d="M42 57c5 5 12 5 17 0" fill="none" stroke="#152015" stroke-width="3" stroke-linecap="round"/>
  <circle cx="43" cy="50" r="3" fill="#152015"/>
  <circle cx="57" cy="50" r="3" fill="#152015"/>
</svg>
